<svg width="50" height="50" viewBox="0 0 50 50" fill="none" xmlns="http://www.w3.org/2000/svg">
<circle cx="25" cy="25" r="23.25" stroke="#1E1E1E" stroke-width="3.5"/>
<path d="M38.3334 43V39.6667C38.3334 37.8986 37.631 36.2029 36.3807 34.9526C35.1305 33.7024 33.4348 33 31.6667 33H18.3334C16.5652 33 14.8696 33.7024 13.6193 34.9526C12.3691 36.2029 11.6667 37.8986 11.6667 39.6667V43M31.6667 19.6667C31.6667 23.3486 28.6819 26.3333 25 26.3333C21.3181 26.3333 18.3334 23.3486 18.3334 19.6667C18.3334 15.9848 21.3181 13 25 13C28.6819 13 31.6667 15.9848 31.6667 19.6667Z" stroke="#1E1E1E" stroke-width="3.5" stroke-linecap="round" stroke-linejoin="round"/>
</svg>
