<svg width="16" height="18" viewBox="0 0 16 18" fill="none" xmlns="http://www.w3.org/2000/svg">
<path d="M6.856 12.263C6.856 11.927 6.88167 11.612 6.933 11.318C6.989 11.024 7.09167 10.744 7.241 10.478C7.367 10.226 7.514 10.023 7.682 9.869C7.85467 9.71033 8.04133 9.55633 8.242 9.407C8.44733 9.253 8.662 9.057 8.886 8.819C9.07267 8.61367 9.19633 8.406 9.257 8.196C9.32233 7.986 9.355 7.75967 9.355 7.517C9.355 7.33967 9.334 7.174 9.292 7.02C9.25 6.866 9.18 6.733 9.082 6.621C8.93267 6.43433 8.74367 6.30367 8.515 6.229C8.28633 6.14967 8.04833 6.11 7.801 6.11C7.577 6.11 7.36233 6.14033 7.157 6.201C6.95633 6.26167 6.78833 6.355 6.653 6.481C6.50833 6.60233 6.401 6.754 6.331 6.936C6.26567 7.11333 6.23533 7.307 6.24 7.517H4.7C4.73733 7.07833 4.84933 6.66767 5.036 6.285C5.22267 5.90233 5.47467 5.592 5.792 5.354C6.06267 5.13933 6.37067 4.98067 6.716 4.878C7.06133 4.77067 7.40667 4.717 7.752 4.717C8.24667 4.717 8.71333 4.794 9.152 4.948C9.59533 5.102 9.964 5.35167 10.258 5.697C10.4727 5.93967 10.6337 6.21733 10.741 6.53C10.853 6.838 10.909 7.15767 10.909 7.489C10.909 7.93233 10.8133 8.343 10.622 8.721C10.4353 9.099 10.195 9.44433 9.901 9.757C9.747 9.92033 9.59067 10.0697 9.432 10.205C9.27333 10.3357 9.12633 10.464 8.991 10.59C8.85567 10.716 8.74367 10.8537 8.655 11.003C8.529 11.2177 8.45667 11.4113 8.438 11.584C8.41933 11.752 8.41 11.9783 8.41 12.263H6.856ZM6.863 15V13.306H8.41V15H6.863Z" fill="black"/>
<circle cx="8" cy="10" r="7.5" stroke="black"/>
</svg>
